<svg width="38" height="46" viewBox="0 0 38 46" fill="none" xmlns="http://www.w3.org/2000/svg">
<path d="M36.0011 23.2718C35.8768 22.9004 35.8797 22.2831 35.8797 21.9118C35.8797 21.6642 36.0011 21.4159 36.0011 21.1683C36.0011 20.7969 36.0011 20.3005 36.0011 19.9291C36.0011 19.8053 36.1285 19.5573 36.1285 19.4335C36.2528 18.5669 36.0042 17.7008 36.1285 16.8343C36.2528 16.2153 36.1285 15.2257 36.1285 14.4829C36.0042 13.7402 36.1253 12.9982 36.0011 12.2555C35.5039 10.0272 34.3854 8.41605 32.8941 7.30191C32.7698 7.17811 32.5208 6.93306 32.3965 6.80927C32.148 6.56168 30.412 5.57073 30.1634 6.1897C30.0391 6.43728 30.4122 6.80649 30.4122 7.05408C30.5365 7.17787 30.5367 7.42594 30.661 7.54974C30.9096 8.04491 31.529 8.29371 31.7776 8.78889C32.0261 9.16027 32.148 9.65375 32.3965 10.1489C33.0179 11.3869 34.1379 13.2456 33.8893 15.1025C33.765 15.4739 33.8922 15.9672 33.7679 16.3386C33.6437 16.71 32.5237 18.1973 32.2752 18.1973C32.0266 18.1973 31.7773 18.1972 31.5288 18.0734C31.0317 17.9496 30.6605 18.0733 30.1634 17.9495C29.7906 17.9495 29.2923 17.8256 28.9194 17.8256C28.0495 17.8256 27.18 17.8256 26.3101 17.8256C24.4459 17.9494 22.2092 17.9498 20.345 18.1973C19.475 18.1973 18.6056 18.1973 17.7356 18.1973C16.12 18.3211 15.6222 17.0826 13.8823 17.5778C13.6338 17.454 13.6335 16.9578 13.6335 16.5865C13.7578 15.9675 14.0039 15.3498 14.2525 14.8547C14.3768 14.4833 14.6258 13.9869 14.7501 13.6155C14.9986 13.1203 15.4936 12.5028 15.6178 12.0076C15.6178 11.7601 15.621 11.5117 15.7453 11.2642C15.8695 11.0166 15.8698 10.7683 15.9941 10.5207C16.1183 10.0255 16.24 9.40798 16.3642 8.9128C16.3642 8.66521 16.3674 8.54081 16.4917 8.29323C16.8645 7.55046 17.3628 7.05613 17.7356 6.06578C17.4871 5.44681 16.2392 5.69428 15.6178 5.94187C14.3751 6.31325 13.3806 7.17848 12.2621 7.67365C11.8893 7.92124 11.3939 8.41678 10.8967 8.0454C10.2754 7.79781 9.77946 7.18077 9.03379 6.93319C8.66096 6.80939 8.16288 6.5612 8.0386 6.31361C8.0386 6.18982 8.0386 6.06566 8.0386 5.94187C8.0386 5.44669 7.91723 5.07398 7.91723 4.5788C7.66868 3.58845 7.29172 2.47455 6.79461 1.73179C6.67033 1.4842 6.67009 1.3598 6.54581 1.11221C6.42153 0.988417 6.29993 0.867283 6.17565 0.743489C5.92709 0.372107 5.68048 0 5.05909 0C4.18915 0.742764 3.93914 2.72141 3.5663 4.08314C3.5663 4.70211 3.5663 5.19886 3.5663 5.69404C3.69058 5.94163 3.81195 6.31397 3.68767 6.68536C3.56339 7.18053 3.18983 7.79793 2.94127 8.16931C2.817 8.54069 2.81991 8.91328 2.81991 9.40846C2.69563 9.53225 2.32523 9.5325 2.20095 9.65629C2.20095 9.78008 1.95215 10.6448 1.95215 10.8924C1.95215 11.14 1.949 11.3883 1.82472 11.6359C1.57616 12.0073 0.953561 12.008 0.580728 12.3794C-0.0406596 12.9984 -0.162267 14.112 0.210566 14.9786C0.334843 15.1024 0.456451 15.3504 0.580728 15.4742C0.580728 15.598 0.580728 15.7222 0.580728 15.846C0.705006 16.3412 0.954289 16.8345 1.32712 17.0821C1.57568 17.2059 1.95239 17.3299 2.20095 17.3299C2.20095 17.8251 1.7002 18.074 1.57592 18.693C1.45164 19.4358 1.57908 20.7971 1.70335 21.4161C1.82763 22.0351 1.57592 22.5288 1.57592 23.024C1.57592 23.2716 1.57908 23.396 1.70335 23.6436C1.82763 23.7673 1.82787 23.8915 1.95215 24.0153C1.95215 24.2629 1.82787 24.3873 1.95215 24.6349C2.07643 24.8825 2.32547 24.759 2.44975 25.0066V26.7384C2.32547 27.1098 2.07667 27.3583 2.20095 27.7297C2.4495 28.5963 3.06895 29.0906 3.31751 29.9572C3.44178 30.4523 3.56339 30.949 3.68767 31.4441C4.18478 32.5583 4.4343 33.9177 4.68286 35.2795C4.68286 35.7746 4.81029 36.1473 4.81029 36.6425C4.93457 37.2615 5.05594 38.127 4.93166 38.6221C4.80738 39.1173 4.55834 39.6138 4.43406 39.9852C4.30978 40.2328 4.30954 40.3572 4.18526 40.6048C3.93671 40.9762 3.43839 40.8527 2.94127 40.9765C2.31989 41.2241 1.69995 41.5936 1.32712 42.0887C1.32712 42.0887 1.32712 42.0889 1.32712 42.2126C1.4514 42.3364 1.57616 42.2128 1.82472 42.3366C1.82472 42.4604 1.94924 42.4606 2.07352 42.5844C2.44635 42.7082 3.93986 43.0799 4.3127 42.9561C4.56125 42.8323 4.9319 42.7082 5.18046 42.5844C5.55329 42.4606 5.79966 42.7081 6.04821 42.4605C6.17249 42.3367 6.05137 42.0885 6.17565 41.8409C6.29993 41.5933 6.42445 41.345 6.42445 41.0974C6.54872 40.726 6.54581 40.3566 6.54581 39.9852C6.67009 39.6138 7.04656 39.4892 7.17084 39.1178C7.29512 38.7464 7.17084 38.4979 7.17084 38.1265C7.17084 37.6313 7.41672 37.0138 7.541 36.5186C7.66528 35.5283 7.41697 34.1664 7.7898 33.2998H7.91723C8.04151 33.4236 7.91432 33.7957 8.0386 34.0433C8.16288 34.2909 8.16312 34.6602 8.2874 35.0316C8.2874 35.403 8.2874 35.8994 8.2874 36.2708C8.41167 37.2611 7.91408 38.3752 7.7898 39.2417C7.7898 39.6131 7.7898 39.9856 7.7898 40.3569C7.66552 41.0997 7.41648 41.5936 7.2922 42.0887C7.16793 42.5839 7.1706 42.8326 6.92204 43.204C6.79776 43.3278 6.54557 43.4519 6.29701 43.5757C6.17273 43.5757 6.05404 43.5757 5.80548 43.5757C5.43265 43.6995 4.81005 44.1925 4.5615 44.4401C4.43722 44.5639 4.06099 44.8122 4.18526 45.1836C4.30954 45.4312 4.6831 45.4314 4.93166 45.4314C5.18021 45.4314 5.30498 45.5553 5.42925 45.5553C5.80209 45.5553 6.17298 45.5552 6.54581 45.4314C6.91864 46.0504 8.53644 45.555 8.78499 45.1836C9.03355 44.936 9.03088 43.9472 9.15515 43.6996C9.27943 43.3282 9.27967 42.9559 9.40395 42.7083C9.65251 42.3369 10.2778 42.2124 10.2778 41.9648C10.4021 41.7172 10.1503 41.5928 10.1503 41.3452C10.1503 41.0977 10.2778 40.7283 10.2778 40.3569C10.5263 39.4904 11.0244 38.7453 11.273 38.0026C11.3972 37.6312 11.5189 37.2617 11.6431 36.8904C12.016 36.0238 11.765 34.6623 12.2621 34.0433C12.7592 33.3006 13.7559 33.4234 14.7501 33.052C15.62 32.8044 16.6169 32.3082 17.4869 31.9368C17.984 31.813 18.4796 31.4443 19.101 31.5681C19.3496 31.5681 19.8474 31.6892 19.8474 31.9368C19.8474 32.0606 19.8474 32.1846 19.8474 32.1846C19.9717 32.556 20.4668 33.0519 20.964 32.9281C21.7096 32.8043 22.0842 32.1871 22.7055 31.692C22.9541 31.4444 23.3279 31.32 23.7007 31.0724C23.9493 30.9486 24.0711 30.8244 24.3197 30.7007C24.6925 31.1958 25.0634 31.5655 25.4362 32.0607C25.5605 32.1845 25.6882 32.3085 25.8125 32.3085C25.9368 32.4323 26.0613 32.5565 26.0613 32.6803C26.3098 32.8041 26.4346 32.9283 26.5589 33.1759C26.8074 33.4235 26.9293 33.5479 27.1778 33.7955C27.6749 34.1669 28.2946 34.6605 28.5432 35.2795C28.7917 36.0222 28.5461 37.015 28.4218 37.7578C28.2975 38.2529 28.2973 38.6225 28.173 38.9939C27.9245 39.3653 27.4293 39.242 27.0565 39.4895C26.4351 39.7371 25.8122 40.1096 25.5637 40.6048V40.7287C25.8122 40.8525 26.4348 41.0974 26.8077 41.0974C27.9262 40.9736 28.6684 41.3478 29.5384 40.8526C30.1598 40.4812 29.9149 39.6127 30.1634 38.87C30.2877 38.1272 30.6552 37.2612 30.9037 36.3947C31.1523 36.5185 31.1557 36.6428 31.28 36.8904C31.5285 37.2617 31.7747 37.5103 31.8989 37.8817C32.1475 38.5006 32.0232 39.8619 31.8989 40.4809C31.7747 40.976 32.0261 41.4695 31.7776 41.8409C31.6533 42.0885 31.1523 41.841 30.9037 41.9648C30.7795 42.0886 30.6579 42.2129 30.5336 42.4605C30.285 42.7081 29.4173 43.0807 29.6658 43.6996C29.7901 44.071 30.5309 43.9475 30.9037 43.9475C32.2708 43.9475 32.6492 44.1946 33.5191 43.4518C34.0163 43.0804 33.5162 42.2119 33.6405 41.4692C33.8891 40.2312 33.8896 39.1168 34.1381 38.1265C34.2624 37.7551 34.76 36.8897 34.6357 36.2708C34.5114 36.0232 34.2624 35.775 34.1381 35.6512C33.7653 35.2798 33.3946 34.6623 33.2704 34.0433C33.1461 33.1768 33.8866 32.1871 34.2595 31.692C34.508 31.1968 34.5085 30.5763 34.7571 30.0811C35.2542 29.3383 36.1287 28.3483 36.3773 27.358C36.5016 26.4914 36.2528 25.7495 36.1285 25.1305C36.2528 24.6354 36.1253 23.8908 36.0011 23.2718Z" fill="#B61E1D"/>
</svg>
