<svg width="30" height="34" viewBox="0 0 30 34" fill="none" xmlns="http://www.w3.org/2000/svg">
<path fill-rule="evenodd" clip-rule="evenodd" d="M15.5944 0.0443697C15.2006 -0.0147899 14.8001 -0.0147899 14.4062 0.0443697C13.6465 0.158471 13.0572 0.505976 12.591 0.853873C12.1736 1.16538 11.722 1.58234 11.2617 2.00738L3.34498 9.31492C2.26885 10.3065 1.3992 11.1078 0.841282 12.1407C0.65813 12.4798 0.503296 12.8335 0.378356 13.198C-0.00223407 14.3086 -0.00116739 15.4912 0.000152729 16.9545L0.000310562 33.2782H30.0003L30.0005 16.9545C30.0018 15.4912 30.0029 14.3086 29.6223 13.198C29.4973 12.8335 29.3425 12.4798 29.1593 12.1407C28.6014 11.1078 27.7318 10.3065 26.6556 9.31492L18.7389 2.00737C18.2786 1.58236 17.827 1.16536 17.4096 0.853873C16.9434 0.505976 16.3541 0.158471 15.5944 0.0443697ZM15.0003 19.2782C18.314 19.2782 21.0003 21.9645 21.0003 25.2782V29.2782H26.0003V17.2187C26.0003 15.3595 25.9751 14.8941 25.8383 14.4948C25.7847 14.3385 25.7184 14.187 25.6399 14.0416C25.4393 13.6703 25.1144 13.3361 23.7483 12.075L16.0856 5.00177C15.5419 4.49994 15.2461 4.23035 15.0173 4.05961L15.0003 4.04704L14.9833 4.05961C14.7545 4.23034 14.4587 4.49994 13.9151 5.00177L6.25235 12.075C4.88622 13.3361 4.56131 13.6703 4.36073 14.0416C4.28223 14.187 4.21588 14.3385 4.16233 14.4948C4.0255 14.8941 4.00031 15.3595 4.00031 17.2187V29.2782H9.00031V25.2782C9.00031 21.9645 11.6866 19.2782 15.0003 19.2782ZM15.0003 23.2782C13.8957 23.2782 13.0003 24.1736 13.0003 25.2782V29.2782H17.0003V25.2782C17.0003 24.1736 16.1049 23.2782 15.0003 23.2782Z" fill="#B61E1D"/>
</svg>
