<svg width="40" height="40" viewBox="0 0 40 40" fill="none" xmlns="http://www.w3.org/2000/svg">
<path d="M20.4965 16.5078L22.1955 25.1765C22.3797 26.1164 22.0582 27.084 21.3482 27.7267C20.3077 28.6686 18.7227 28.6686 17.6823 27.7267C16.9722 27.084 16.6507 26.1164 16.8349 25.1765L18.5339 16.5078C18.7449 15.4309 20.2855 15.4309 20.4965 16.5078Z" fill="#B61E1D"/>
<path fill-rule="evenodd" clip-rule="evenodd" d="M7.53685 8.98379C14.6391 3.67207 24.3913 3.67207 31.4936 8.98379C32.3458 9.6212 33.2306 10.4428 34.7521 11.8557L34.9048 11.9975C35.1052 12.1835 35.2807 12.3464 35.4386 12.5174C36.7226 13.908 37.2752 15.823 36.9294 17.6839C36.8869 17.9126 36.8253 18.1434 36.7548 18.4073L34.6344 26.3586L34.6342 26.3596C34.2752 27.7059 33.9701 28.8499 33.6288 29.7691C33.267 30.7435 32.8088 31.6284 32.0557 32.3827C31.623 32.8159 31.1354 33.1906 30.6053 33.497C29.6825 34.0303 28.7094 34.245 27.6746 34.3436C26.6984 34.4365 25.5141 34.4365 24.1204 34.4365H14.91C13.5163 34.4365 12.3321 34.4365 11.3558 34.3436C10.321 34.245 9.34796 34.0303 8.42513 33.497C7.89501 33.1906 7.40738 32.8159 6.97473 32.3827C6.22157 31.6284 5.76342 30.7435 5.40158 29.7691C5.0602 28.8497 4.7551 27.7054 4.39601 26.3587L2.27588 18.4083C2.2053 18.1439 2.14362 17.9129 2.10106 17.6839C1.75525 15.823 2.30779 13.908 3.59179 12.5174C3.74981 12.3463 3.92509 12.1836 4.12566 11.9975L4.27832 11.8557C5.79984 10.4428 6.68457 9.6212 7.53685 8.98379ZM17.5152 9.12517C15.6216 9.36318 13.7616 9.9406 12.0308 10.8574L13.2133 12.4401C13.8744 13.325 13.693 14.5783 12.8082 15.2394C11.9233 15.9005 10.67 15.7191 10.0089 14.8343L8.76268 13.1663C8.29617 13.5844 7.70669 14.1308 6.88943 14.8897C6.62368 15.1364 6.57038 15.1879 6.53064 15.2309C6.10264 15.6944 5.91846 16.3328 6.03373 16.9531C6.04444 17.0107 6.06215 17.0826 6.15559 17.433L8.2375 25.2401C8.62642 26.6986 8.88419 27.657 9.1514 28.3767C9.40558 29.0612 9.61077 29.3616 9.80519 29.5563C9.99061 29.7419 10.1996 29.9025 10.4268 30.0338C10.665 30.1715 11.0081 30.2924 11.735 30.3616C12.4992 30.4344 13.4917 30.4365 15.0011 30.4365H24.0293C25.5387 30.4365 26.5312 30.4344 27.2954 30.3616C28.0223 30.2924 28.3654 30.1715 28.6036 30.0338C28.8308 29.9025 29.0398 29.7419 29.2252 29.5563C29.4196 29.3616 29.6248 29.0612 29.879 28.3767C30.1462 27.657 30.404 26.6986 30.7929 25.2401L32.8748 17.433C32.9683 17.0826 32.986 17.0107 32.9967 16.9531C33.112 16.3328 32.9278 15.6944 32.4998 15.2309C32.46 15.1879 32.4067 15.1364 32.141 14.8897C31.3238 14.1309 30.7344 13.5845 30.2679 13.1664L29.0218 14.8343C28.3607 15.7191 27.1074 15.9005 26.2226 15.2394C25.3377 14.5783 25.1563 13.325 25.8174 12.4401L26.9998 10.8576C25.269 9.94065 23.4089 9.36319 21.5152 9.12517V11.4745C21.5152 12.579 20.6198 13.4745 19.5152 13.4745C18.4106 13.4745 17.5152 12.579 17.5152 11.4745V9.12517Z" fill="#B61E1D"/>
</svg>
