<svg width="36" height="36" viewBox="0 0 36 36" fill="none" xmlns="http://www.w3.org/2000/svg">
<path fill-rule="evenodd" clip-rule="evenodd" d="M18.064 1.09004e-06H17.936C17.0588 -2.23174e-05 16.3017 -4.2513e-05 15.6752 0.042703C15.0156 0.0877111 14.3558 0.186719 13.7039 0.456727C12.2337 1.06569 11.0657 2.23373 10.4567 3.7039C10.1867 4.35576 10.0877 5.01558 10.0427 5.67524C9.99996 6.30176 9.99998 7.05873 10 7.93604L10 10L7.93604 10C7.05875 9.99998 6.30175 9.99996 5.67524 10.0427C5.01558 10.0877 4.35576 10.1867 3.7039 10.4567C2.23373 11.0657 1.06569 12.2337 0.456723 13.7039C0.186715 14.3558 0.0877087 15.0156 0.042699 15.6752C-4.47035e-05 16.3018 -2.56624e-05 17.0587 1.34901e-06 17.936V18.064C-2.57447e-05 18.9413 -4.48525e-05 19.6983 0.0426988 20.3248C0.0877084 20.9844 0.186715 21.6442 0.456723 22.2961C1.06569 23.7663 2.23373 24.9343 3.7039 25.5433C4.35576 25.8133 5.01558 25.9123 5.67524 25.9573C6.30175 26.0001 7.05873 26 7.93603 26H10L10 28.064C9.99998 28.9413 9.99996 29.6983 10.0427 30.3248C10.0877 30.9844 10.1867 31.6442 10.4567 32.2961C11.0657 33.7663 12.2337 34.9343 13.7039 35.5433C14.3558 35.8133 15.0156 35.9123 15.6752 35.9573C16.3018 36 17.0587 36 17.936 36H18.064C18.9413 36 19.6983 36 20.3248 35.9573C20.9844 35.9123 21.6443 35.8133 22.2961 35.5433C23.7663 34.9343 24.9343 33.7663 25.5433 32.2961C25.8133 31.6442 25.9123 30.9844 25.9573 30.3248C26.0001 29.6983 26 28.9413 26 28.0641V26H28.064C28.9413 26 29.6983 26.0001 30.3248 25.9573C30.9844 25.9123 31.6442 25.8133 32.2961 25.5433C33.7663 24.9343 34.9343 23.7663 35.5433 22.2961C35.8133 21.6442 35.9123 20.9844 35.9573 20.3248C36 19.6983 36 18.9414 36 18.0642V17.936C36 17.0588 36 16.3017 35.9573 15.6752C35.9123 15.0156 35.8133 14.3558 35.5433 13.7039C34.9343 12.2337 33.7663 11.0657 32.2961 10.4567C31.6442 10.1867 30.9844 10.0877 30.3248 10.0427C29.6983 9.99996 28.9413 9.99998 28.064 10H26V7.93602C26 7.05877 26.0001 6.30173 25.9573 5.67524C25.9123 5.01558 25.8133 4.35576 25.5433 3.7039C24.9343 2.23373 23.7663 1.06569 22.2961 0.456727C21.6443 0.186719 20.9844 0.0877111 20.3248 0.042703C19.6983 -4.25093e-05 18.9412 -2.23174e-05 18.064 1.09004e-06ZM22 8C22 7.04076 21.9989 6.42148 21.9666 5.94752C21.9355 5.49153 21.8822 5.31786 21.8478 5.23464C21.6448 4.74458 21.2554 4.35523 20.7654 4.15224C20.6821 4.11777 20.5085 4.06454 20.0525 4.03342C19.5785 4.00109 18.9593 4 18 4C17.0408 4 16.4215 4.00109 15.9475 4.03342C15.4915 4.06454 15.3179 4.11777 15.2346 4.15224C14.7446 4.35523 14.3552 4.74458 14.1523 5.23464C14.1178 5.31786 14.0645 5.49153 14.0334 5.94752C14.0011 6.42148 14 7.04076 14 8V14L8 14C7.04076 14 6.42148 14.0011 5.94752 14.0334C5.49153 14.0645 5.31786 14.1178 5.23464 14.1522C4.74458 14.3552 4.35523 14.7446 4.15224 15.2346C4.11777 15.3179 4.06454 15.4915 4.03342 15.9475C4.00109 16.4215 4 17.0408 4 18C4 18.9593 4.00109 19.5785 4.03342 20.0525C4.06454 20.5085 4.11777 20.6821 4.15224 20.7654C4.35523 21.2554 4.74458 21.6448 5.23464 21.8478C5.31786 21.8822 5.49153 21.9355 5.94752 21.9666C6.42148 21.9989 7.04075 22 8 22H14V28C14 28.9593 14.0011 29.5785 14.0334 30.0525C14.0645 30.5085 14.1178 30.6821 14.1523 30.7654C14.3552 31.2554 14.7446 31.6448 15.2346 31.8478C15.3179 31.8822 15.4915 31.9355 15.9475 31.9666C16.4215 31.9989 17.0408 32 18 32C18.9593 32 19.5785 31.9989 20.0525 31.9666C20.5085 31.9355 20.6821 31.8822 20.7654 31.8478C21.2554 31.6448 21.6448 31.2554 21.8478 30.7654C21.8822 30.6821 21.9355 30.5085 21.9666 30.0525C21.9989 29.5785 22 28.9593 22 28V22L28 22C28.9592 22 29.5785 21.9989 30.0525 21.9666C30.5085 21.9355 30.6821 21.8822 30.7654 21.8478C31.2554 21.6448 31.6448 21.2554 31.8478 20.7654C31.8822 20.6821 31.9355 20.5085 31.9666 20.0525C31.9989 19.5785 32 18.9593 32 18C32 17.0408 31.9989 16.4215 31.9666 15.9475C31.9355 15.4915 31.8822 15.3179 31.8478 15.2346C31.6448 14.7446 31.2554 14.3552 30.7654 14.1522C30.6821 14.1178 30.5085 14.0645 30.0525 14.0334C29.5785 14.0011 28.9592 14 28 14L22 14V8Z" fill="#B61E1D"/>
</svg>
