<svg width="34" height="32" viewBox="0 0 34 32" fill="none" xmlns="http://www.w3.org/2000/svg">
<path d="M25.7613 5.50539C25.118 7.90599 22.8938 9.39579 20.7933 8.83296C18.6927 8.27012 17.5114 5.86779 18.1546 3.46719C18.7978 1.06659 21.0221 -0.42321 23.1226 0.139624C25.2232 0.702457 26.4045 3.10479 25.7613 5.50539Z" fill="#B61E1D"/>
<path d="M13.0858 8.86531C15.1863 8.30248 16.3677 5.90014 15.7244 3.49955C15.0812 1.09895 12.8569 -0.390853 10.7564 0.171981C8.6559 0.734814 7.47453 3.13715 8.11777 5.53775C8.76101 7.93834 10.9853 9.42815 13.0858 8.86531Z" fill="#B61E1D"/>
<path d="M6.08579 16.8653C8.18631 16.3025 9.36768 13.9001 8.72444 11.4995C8.0812 9.09895 5.85694 7.60915 3.75642 8.17198C1.6559 8.73481 0.474534 11.1371 1.11777 13.5377C1.76101 15.9383 3.98527 17.4281 6.08579 16.8653Z" fill="#B61E1D"/>
<path d="M28.7933 16.833C30.8938 17.3958 33.118 15.906 33.7613 13.5054C34.4045 11.1048 33.2232 8.70246 31.1226 8.13962C29.0221 7.57679 26.7978 9.06659 26.1546 11.4672C25.5114 13.8678 26.6927 16.2701 28.7933 16.833Z" fill="#B61E1D"/>
<path fill-rule="evenodd" clip-rule="evenodd" d="M20.9996 12.7226C18.5245 11.2937 15.4752 11.2937 13.0002 12.7226C12.0798 13.2539 11.3407 14.0334 10.6278 14.9362C9.92589 15.825 9.12817 16.995 8.14418 18.4382L8.05793 18.5647C7.07122 20.0118 6.27117 21.1852 5.71593 22.1342C5.17737 23.0547 4.68312 24.0593 4.62074 25.1195C4.46776 27.7197 6.00984 30.1216 8.43775 31.0647C9.42771 31.4493 10.5469 31.418 11.608 31.3115C12.702 31.2016 14.102 30.9626 15.8285 30.6677L16.3223 30.5834C16.6942 30.5199 16.7672 30.5091 16.8331 30.5036C16.9441 30.4943 17.0557 30.4943 17.1666 30.5036C17.2326 30.5091 17.3056 30.5199 17.6775 30.5834L18.1713 30.6677C19.8978 30.9626 21.2978 31.2016 22.3918 31.3115C23.4529 31.418 24.5721 31.4493 25.562 31.0647C27.9899 30.1216 29.532 27.7197 29.379 25.1195C29.3167 24.0593 28.8224 23.0547 28.2838 22.1342C27.7286 21.1852 26.9285 20.0118 25.9418 18.5647L25.8556 18.4383C24.8716 16.995 24.0739 15.825 23.372 14.9362C22.6591 14.0334 21.92 13.2539 20.9996 12.7226ZM15 16.1867C16.2376 15.4723 17.7622 15.4723 18.9998 16.1867C19.2654 16.3401 19.6293 16.6509 20.2328 17.4151C20.8373 18.1807 21.5566 19.2336 22.593 20.7535C23.6341 22.2805 24.3546 23.3393 24.8314 24.1542C25.0655 24.5544 25.2099 24.8445 25.2958 25.0593C25.3791 25.2678 25.3858 25.3528 25.3859 25.3545C25.4369 26.2212 24.9229 27.0218 24.1137 27.3362C24.1136 27.3362 24.0342 27.366 23.8078 27.3771C23.5767 27.3884 23.2528 27.3778 22.7914 27.3315C21.852 27.2372 20.5894 27.0228 18.7677 26.7117L18.2937 26.6307C18.0095 26.5821 17.7586 26.5392 17.5001 26.5176C17.1672 26.4897 16.8326 26.4897 16.4997 26.5176C16.2412 26.5392 15.9903 26.5821 15.7062 26.6307L15.2321 26.7117C13.4103 27.0228 12.1478 27.2372 11.2083 27.3315C10.747 27.3778 10.4231 27.3884 10.192 27.3771C9.96562 27.366 9.88613 27.3362 9.88612 27.3362C9.07685 27.0218 8.56285 26.2211 8.61384 25.3544C8.61385 25.3544 8.61981 25.2698 8.70396 25.0593C8.78984 24.8445 8.93428 24.5544 9.16841 24.1542C9.64522 23.3393 10.3657 22.2805 11.4068 20.7535C12.4431 19.2336 13.1625 18.1807 13.767 17.4151C14.3705 16.6509 14.7343 16.3401 15 16.1867Z" fill="#B61E1D"/>
</svg>
