<svg width="83" height="49" viewBox="0 0 83 49" fill="none" xmlns="http://www.w3.org/2000/svg">
<path fill-rule="evenodd" clip-rule="evenodd" d="M73.5712 28.8982C74.6676 31.7357 72.4774 34.1378 70.7232 35.6657C70.7232 36.3205 71.1574 36.1023 71.8152 35.6657C71.1574 37.1936 67.6559 36.536 67.8751 38.2822C66.7788 38.5004 65.246 37.6278 64.5882 38.7191C65.0267 39.3739 65.4558 38.7195 65.8944 39.1561C62.386 39.5926 59.1028 38.5007 55.5944 38.5007C54.9366 38.0641 53.6188 36.9756 53.3995 35.8842C52.7417 35.666 51.8675 36.1029 50.9904 36.3212C50.5519 34.575 49.0135 34.7914 47.4786 34.3549C45.9437 33.9183 44.634 32.6083 42.6605 33.9179C42.6605 34.5727 42.6546 35.4477 41.9967 35.8842C43.0931 36.9756 43.3133 38.0647 42.8747 39.1561C46.1639 43.5214 50.7703 47.4477 55.5944 47.4477C56.0329 48.3208 56.4728 48.1035 56.9113 48.54C59.7619 47.8852 62.3855 49.194 65.4554 47.6661C68.0867 49.194 71.6041 45.9232 74.674 45.4867C75.5511 44.3954 75.9815 43.5206 77.2971 43.7388C77.5164 43.084 78.3944 42.6458 78.1751 41.991C78.6137 41.5545 79.0535 41.9961 79.492 41.7778C80.1499 40.9048 80.1563 40.0291 80.5949 39.1561C81.0334 38.7195 81.2484 39.5926 81.687 39.1561C81.9062 37.6282 81.2441 36.1017 82.7791 35.0103C82.1212 32.3911 82.3435 29.9878 80.37 27.1503C80.1507 26.4955 81.0236 27.5867 81.4621 26.9319C81.2428 25.8406 79.9302 25.1885 79.0531 24.3154C79.0531 23.8789 79.4972 23.4409 79.2779 22.7861C78.4008 21.913 76.205 21.479 76.205 19.9512C75.1087 19.2964 74.0089 18.64 72.6932 18.4218C72.2546 17.9852 72.9176 17.7659 72.4791 17.3294C69.8478 16.2381 66.9998 16.2363 64.1492 15.5815C64.3685 13.3989 63.9286 11.0022 62.8322 9.03779C59.9816 4.23591 55.3704 2.2683 50.7656 0.3039C46.8186 0.0856331 43.0957 -0.350662 39.1487 0.522406C34.3246 1.61374 29.9361 4.23401 25.112 7.07148C21.1651 9.47241 17.2177 8.59678 13.7092 9.90638C13.0514 10.7794 12.1718 10.7812 11.0754 11.6542C8.88264 9.90811 2.08416 11.8712 4.71547 15.8C3.39982 15.1452 1.8658 15.1461 0.111592 16.674C-0.32696 18.4201 0.552269 21.0399 2.30648 22.7861C1.64865 24.7505 2.75102 26.4973 2.9703 28.8982C3.18957 30.2078 2.31377 31.9529 4.28725 33.2625C5.60291 32.8259 6.47269 31.952 7.78835 32.3886C9.10401 29.3328 13.2673 28.8969 15.6793 27.5873C15.8986 27.369 16.1187 26.7134 16.5573 26.7134C17.8729 26.2768 18.9727 27.1505 20.0691 27.3688C20.5077 28.6784 20.5077 29.9863 20.0691 31.0776C18.5342 32.6055 16.7817 32.1715 16.3432 33.6994C17.001 34.3542 16.7774 34.7922 17.4353 35.2288C18.5316 33.7009 21.3822 33.6975 22.9171 31.7331C22.9171 30.4235 23.3625 29.1154 24.4589 27.8058C24.8974 27.8058 25.3317 27.806 25.551 28.0242C25.9895 29.5521 25.557 31.0791 26.2149 32.607C24.6799 33.2618 23.3613 34.3559 23.142 35.4473C23.5805 36.1021 24.0203 36.535 24.4589 37.1898C25.336 37.408 26.2049 37.4091 27.0821 38.2822C30.5905 33.6986 30.8102 28.6803 33.0029 23.8784C35.8535 23.8784 38.9264 22.131 41.5578 22.5676C42.2156 22.5676 42.2169 22.1304 42.8747 21.9121C46.6024 28.2419 52.5219 28.6814 58.4424 24.9708C58.881 29.1179 50.3292 29.3343 52.9605 33.9179C53.6184 33.9179 53.8338 33.262 54.4916 32.8255C55.1494 33.0438 55.37 34.3557 55.8086 35.2288C57.1242 35.0105 56.9122 34.1355 57.7893 33.2625C58.4472 32.8259 59.1015 33.6988 59.7594 33.044C61.5136 29.9882 59.544 26.0607 63.7102 23.4415C65.2452 23.2233 66.9933 23.0048 68.5283 23.223C68.7476 24.0961 68.754 25.1844 69.6311 25.621C70.2889 25.1844 69.6311 24.7517 69.6311 24.0969C71.166 24.97 70.2795 26.7146 70.9373 28.0242C71.5952 27.806 71.3767 27.3686 71.8152 27.1503C72.6923 28.4599 71.3767 29.5547 71.8152 30.646C73.5694 31.0825 73.5712 29.553 73.5712 28.8982Z" fill="#B61E1D"/>
</svg>
