<svg width="100" height="81" viewBox="0 0 100 81" fill="none" xmlns="http://www.w3.org/2000/svg">
<path d="M20.1089 43.3252C19.8636 43.3252 19.3783 44.0388 19.3783 44.7569L18.3962 47.3924C18.151 48.1105 17.4137 49.0644 16.9231 49.7825C16.4325 50.2612 15.4433 50.9809 14.7074 51.4596L14.2164 51.6992C13.4805 52.1779 12.509 52.4179 11.7731 52.4179C11.0373 52.4179 9.80222 52.6575 9.06637 52.6575H8.57533C7.83948 52.6575 6.62264 52.6573 6.13208 52.4179C6.13208 52.4179 6.1316 52.4177 5.64103 52.1784C5.15047 51.939 4.40743 51.4596 4.40743 51.4596C3.67158 51.2202 2.69428 50.5008 2.20372 50.022C1.71315 49.5433 0.975863 49.069 0.73058 48.5903C0.485296 48.351 0 47.6317 0 47.3924C0 47.153 0.239534 46.4335 0.239534 45.9548C0.484817 45.4761 0.731059 45.2358 1.22163 44.9965C1.46691 44.9965 2.19797 44.9965 2.44325 44.9965C2.93382 44.9965 3.42582 45.236 3.91639 45.236C4.16167 45.236 4.89896 45.236 5.38952 45.236C5.63481 45.236 6.6236 45.236 7.11417 45.236C7.60474 45.236 8.57581 44.996 9.06637 44.5173C9.55694 44.0386 10.2942 43.3247 10.5395 42.846C10.7848 42.3673 11.0306 41.1681 11.0306 40.4501L11.5216 36.3829C11.5216 35.6648 11.7674 34.4652 12.0126 33.5078L12.9947 29.201C13.24 28.4829 13.4858 27.0439 13.4858 26.3258L13.7373 24.415C13.9826 23.6969 14.2226 22.4975 14.4679 21.7794L14.7074 21.0607C14.9527 20.3426 15.2047 19.1491 15.45 18.431C15.45 18.431 15.9353 17.4724 16.1805 17.2331C16.6711 16.9937 17.6537 15.5559 17.6537 15.5559C18.1442 14.8378 19.1335 14.1179 19.8694 13.6392L21.8216 12.6867C22.5574 12.208 23.7925 11.9677 24.5283 11.7283L26.241 11.2491C26.9768 11.0098 28.1999 10.7699 28.9357 10.7699H30.8999C31.6358 10.7699 32.8651 10.7697 33.8462 10.5303L35.3193 10.2908C36.0552 10.2908 37.2783 10.291 38.0141 10.5303L41.1999 11.2491C41.9358 11.4885 43.1708 11.7285 43.9066 11.9679L50.2783 14.1184C51.0141 14.3577 52.2372 14.8374 52.973 15.0767L55.9193 16.0351C56.6551 16.2745 57.8782 16.5145 58.6141 16.7539H59.1051C59.8409 16.9932 61.0702 17.2331 62.0514 17.2331L63.0335 17.4727C63.7693 17.4727 64.9924 17.9521 65.7282 18.1914L66.4708 18.6706C67.2066 18.91 68.1897 18.9097 68.435 18.431C68.6802 17.9523 69.166 17.2324 69.6566 16.5143C69.9019 15.7962 70.3876 14.5969 70.8782 13.8788C71.3688 13.1607 71.6208 11.9672 71.6208 11.2491V10.7699C71.6208 10.0519 71.6208 8.85227 71.6208 7.89484L70.8782 4.30681C70.6329 3.58873 70.6387 2.62896 70.6387 1.91089C70.6387 1.43217 70.6329 0.718545 70.8782 0.479187C71.1235 0.239829 71.3755 0 71.6208 0C71.866 0 72.3518 0.239593 72.8424 0.239593C73.333 0.478951 74.0765 0.95883 74.567 1.43755L74.8066 1.6713C75.5424 2.15001 76.5197 2.86997 77.0103 3.58804L79.4655 5.74435C79.9561 6.22307 80.9391 6.70249 81.4297 6.46313C81.9203 6.22378 82.8976 6.22354 83.6334 6.22354C84.3693 6.22354 85.6043 6.46337 86.3401 6.70273C87.076 6.94209 87.8075 7.42151 88.0528 7.42151C88.2981 7.42151 88.7839 7.42127 89.2744 7.18191C89.765 6.94256 90.5028 6.22307 91.2386 5.74435L92.9633 4.5464C93.6991 4.06769 94.6764 3.34821 95.167 3.10886C95.6576 2.63014 96.6344 2.15048 96.8797 2.15048C97.1249 1.91112 97.6165 1.91089 97.8617 1.91089C98.107 1.91089 98.5986 2.15072 98.8438 2.39008C99.0891 2.62943 99.3349 3.10933 99.3349 3.58804C99.3349 4.06676 99.3349 5.02628 99.3349 5.74435L99.0953 7.18191C99.0953 7.89999 98.8496 9.0935 98.6043 9.81157L98.3528 10.5303C98.1075 11.2484 97.8617 12.208 97.8617 12.6867C97.8617 13.1654 97.8617 14.1191 97.8617 14.8371C97.8617 15.5552 98.1133 16.7543 98.1133 17.2331C98.1133 17.7118 98.1133 18.9107 98.1133 19.3894C98.1133 20.1075 98.1133 21.0611 98.1133 21.5399C98.1133 22.0186 97.8675 23.2177 97.6222 23.9358C97.6222 23.9358 97.616 23.9363 97.3707 24.415C97.1254 24.8937 96.1428 26.3263 95.8976 26.805C95.6523 27.2838 94.9217 29.2014 95.167 29.6801C95.167 30.1589 95.4065 30.6385 95.4065 30.6385C95.6518 31.3566 95.6523 32.5503 95.8976 33.5078C95.8976 33.5078 95.8976 33.9874 95.8976 34.4661C95.8976 34.7055 95.658 35.1849 95.658 35.1849C95.1675 35.903 94.9155 36.6227 94.9155 36.862C94.9155 37.1014 94.9212 37.5752 94.6759 37.8146C94.4307 38.0539 94.1844 38.7736 93.6938 39.4917L93.4543 39.7313C93.209 40.4494 92.4717 41.6485 91.9812 42.1272L91.4901 42.6064C90.9996 43.3245 90.5018 44.2786 90.2565 45.236L89.7655 46.1944C89.5202 46.9125 89.0344 47.872 88.5439 48.3507C88.0533 48.8294 87.316 49.7831 87.0707 50.5012L86.3401 51.4596C85.8496 52.1777 85.1123 53.1374 84.867 53.8555L84.6155 54.3347C84.1249 55.0528 83.6334 56.246 83.6334 56.7248V57.2039C83.3881 57.922 83.1481 59.1214 82.9028 59.8395L81.1902 63.9067C80.9449 64.6247 80.4534 65.8241 80.2081 66.5422L79.717 67.7343C79.4717 68.4524 78.9802 69.4119 78.7349 69.8906C78.4896 70.3693 78.2439 71.0888 78.2439 71.3281C78.2439 71.5675 78.4834 72.0472 78.4834 72.2865C78.7287 72.5259 78.9807 72.5261 79.226 72.5261C79.4713 72.5261 79.957 72.7659 80.4476 73.0053C80.9382 73.2446 81.4239 73.7185 81.6692 73.9578C82.1598 74.1972 82.4118 74.6768 82.4118 74.9162C82.4118 75.1555 82.6513 75.8745 82.6513 75.8745C82.6513 76.1139 82.1655 76.5936 81.4297 76.8329C80.6938 77.0723 79.7165 77.5517 79.226 77.5517C78.7354 77.5517 77.7519 77.5515 76.7708 77.3121C76.0349 77.0727 75.5371 77.3123 75.5371 77.5517C75.7824 77.791 76.0282 78.5103 76.0282 78.7496C76.0282 79.2284 76.0339 79.7024 75.7887 79.9418C75.7887 80.1811 75.0576 80.6605 74.567 80.6605C74.0765 80.8999 72.8477 80.9001 72.1118 80.9001H71.1297C70.3939 80.9001 69.1708 80.6603 68.435 80.4209C67.6991 80.1816 66.7161 79.9415 66.4708 79.7022C66.2255 79.4628 65.734 78.7492 65.4887 78.2705C65.2434 77.7917 64.9976 76.5926 64.9976 75.8745V74.1974C64.9976 73.4793 64.7461 72.2856 64.7461 71.3281C64.5008 70.6101 64.2546 69.4107 63.764 68.6926C63.764 68.6926 63.5183 68.213 63.273 67.7343C63.0277 67.2556 61.8118 63.1879 61.8118 63.1879C61.5665 62.4698 61.075 61.2763 60.8297 60.5582L59.5961 57.6831C59.3509 56.965 58.8656 55.7715 58.8656 55.0535V54.8139C58.6203 54.0958 57.8768 53.6162 57.1409 53.8555L56.4103 54.0951C55.6745 54.3345 54.4452 54.3347 53.4641 54.3347C52.7282 54.3347 51.2656 54.3347 50.5298 54.3347H50.0387C49.3029 54.3347 47.8283 54.3347 47.0924 54.3347C46.3566 54.3347 45.1278 53.855 44.6372 53.3763L43.6551 52.4179C43.1646 51.9392 42.925 51.9395 43.4156 52.6575L45.6193 56.4852C45.8646 57.2032 46.5956 58.4026 46.8409 59.1207C46.8409 59.1207 47.3325 60.3186 47.823 60.3186C48.0683 60.3186 49.0566 60.3186 49.0566 60.3186C49.7925 60.3186 51.0093 60.5587 51.4999 61.0374C51.9904 61.2768 52.7277 61.7508 52.973 62.2295C53.2183 62.4689 53.4641 63.1881 53.4641 63.4275C53.4641 63.6668 53.2183 64.3861 52.973 64.6254C52.7277 64.8648 52.2357 65.3442 51.4999 65.3442C51.0093 65.3442 50.0378 65.5838 49.0566 65.5838H47.0924C46.3566 65.5838 45.1335 65.344 44.3977 65.1046L44.1462 64.865C43.4103 64.6257 42.1815 63.9064 41.6909 63.6671H41.4514C40.7156 63.1884 39.9778 62.229 39.4872 61.7503L38.9962 60.7978C38.5056 60.0797 38.0136 59.12 37.5231 58.4019L35.0678 53.6159C34.5773 52.8978 34.331 52.8978 34.0857 53.6159V53.8555C33.8405 54.5736 33.3489 55.7671 33.1036 56.4852C32.6131 57.2032 32.3731 58.4026 32.3731 59.1207C32.3731 59.1207 32.3731 59.1212 32.3731 59.5999C32.3731 60.0786 32.3731 60.3186 32.3731 60.3186C32.6184 61.0367 32.8641 62.2302 32.8641 62.9483C32.8641 62.9483 32.8646 62.9483 33.3552 62.9483C33.8457 62.9483 34.3377 63.1881 34.8283 63.4275C35.3189 63.4275 35.3193 63.4275 35.3193 63.4275C35.8099 63.6668 36.7929 64.1467 37.2835 64.6254C37.2835 64.6254 37.2778 64.6259 37.5231 65.1046C37.5231 65.344 37.7746 66.0635 37.7746 66.5422C37.7746 66.7815 37.7746 66.7818 37.7746 66.7818C37.5293 67.4998 36.5462 67.9739 35.8104 67.9739C35.0745 67.9739 33.8452 67.9739 32.8641 67.9739H30.4089C29.673 67.9739 28.45 67.7396 27.7141 67.2609C26.9783 66.7822 26.2405 66.3019 25.7499 65.5838C25.2594 65.1051 25.0131 63.906 24.7678 63.1879L24.5283 60.7978C24.5283 60.0797 24.2768 58.8804 24.2768 58.1623C24.2768 58.1623 24.2763 57.6826 23.7858 57.2039C23.2952 56.7252 23.0552 54.5743 23.0552 54.5743C22.8099 53.8562 22.8037 52.6568 22.8037 51.9388C22.8037 51.9388 22.8037 50.2612 22.8037 49.7825C22.8037 49.3037 21.8216 45.9548 21.8216 45.9548C21.5763 45.2368 21.0848 44.0376 20.8395 43.5589C20.8395 43.5589 20.5995 43.0858 20.1089 43.3252Z" fill="#B61E1D"/>
</svg>
